<svg width="20" height="20" viewBox="0 0 20 20" fill="none" xmlns="http://www.w3.org/2000/svg">
<path d="M7.89172 12.7333C7.73339 12.7333 7.57506 12.675 7.45006 12.55C6.76672 11.8667 6.39172 10.9583 6.39172 10C6.39172 8.00833 8.00839 6.39166 10.0001 6.39166C10.9584 6.39166 11.8667 6.76666 12.5501 7.45C12.6667 7.56666 12.7334 7.725 12.7334 7.89166C12.7334 8.05833 12.6667 8.21666 12.5501 8.33333L8.33339 12.55C8.20839 12.675 8.05006 12.7333 7.89172 12.7333ZM10.0001 7.64166C8.70006 7.64166 7.64172 8.7 7.64172 10C7.64172 10.4167 7.75006 10.8167 7.95006 11.1667L11.1667 7.95C10.8167 7.75 10.4167 7.64166 10.0001 7.64166Z" fill="white" fill-opacity="0.5"/>
<path d="M4.66666 15.425C4.52499 15.425 4.37499 15.375 4.25833 15.275C3.36666 14.5167 2.56666 13.5833 1.88333 12.5C0.999992 11.125 0.999992 8.88334 1.88333 7.5C3.91666 4.31667 6.87499 2.48334 9.99999 2.48334C11.8333 2.48334 13.6417 3.11667 15.225 4.30834C15.5 4.51667 15.5583 4.90834 15.35 5.18334C15.1417 5.45834 14.75 5.51667 14.475 5.30834C13.1083 4.275 11.5583 3.73334 9.99999 3.73334C7.30833 3.73334 4.73333 5.35 2.93333 8.175C2.30833 9.15 2.30833 10.85 2.93333 11.825C3.55833 12.8 4.27499 13.6417 5.06666 14.325C5.32499 14.55 5.35833 14.9417 5.13333 15.2083C5.01666 15.35 4.84166 15.425 4.66666 15.425Z" fill="white" fill-opacity="0.5"/>
<path d="M10 17.5166C8.89168 17.5166 7.80834 17.2916 6.76668 16.85C6.45001 16.7166 6.30001 16.35 6.43334 16.0333C6.56668 15.7166 6.93334 15.5666 7.25001 15.7C8.13334 16.075 9.05834 16.2666 9.99168 16.2666C12.6833 16.2666 15.2583 14.65 17.0583 11.825C17.6833 10.85 17.6833 9.14998 17.0583 8.17498C16.8 7.76665 16.5167 7.37498 16.2167 7.00831C16 6.74164 16.0417 6.34998 16.3083 6.12498C16.575 5.90831 16.9667 5.94165 17.1917 6.21665C17.5167 6.61665 17.8333 7.04998 18.1167 7.49998C19 8.87498 19 11.1166 18.1167 12.5C16.0833 15.6833 13.125 17.5166 10 17.5166Z" fill="white" fill-opacity="0.5"/>
<path d="M10.575 13.5583C10.2834 13.5583 10.0167 13.35 9.95836 13.05C9.89169 12.7083 10.1167 12.3833 10.4584 12.325C11.375 12.1583 12.1417 11.3916 12.3084 10.475C12.375 10.1333 12.7 9.91665 13.0417 9.97498C13.3834 10.0416 13.6084 10.3666 13.5417 10.7083C13.275 12.15 12.125 13.2916 10.6917 13.5583C10.65 13.55 10.6167 13.5583 10.575 13.5583Z" fill="white" fill-opacity="0.5"/>
<path d="M1.66662 18.9583C1.50828 18.9583 1.34995 18.9 1.22495 18.775C0.983285 18.5333 0.983285 18.1333 1.22495 17.8917L7.44995 11.6667C7.69162 11.425 8.09162 11.425 8.33329 11.6667C8.57495 11.9083 8.57495 12.3083 8.33329 12.55L2.10828 18.775C1.98328 18.9 1.82495 18.9583 1.66662 18.9583Z" fill="white" fill-opacity="0.5"/>
<path d="M12.1084 8.51668C11.9501 8.51668 11.7917 8.45835 11.6667 8.33335C11.4251 8.09168 11.4251 7.69168 11.6667 7.45001L17.8917 1.22501C18.1334 0.983346 18.5334 0.983346 18.7751 1.22501C19.0167 1.46668 19.0167 1.86668 18.7751 2.10835L12.5501 8.33335C12.4251 8.45835 12.2667 8.51668 12.1084 8.51668Z" fill="white" fill-opacity="0.5"/>
</svg>
