<svg width="42" height="39" viewBox="0 0 42 39" fill="none" xmlns="http://www.w3.org/2000/svg">
<g clip-path="url(#clip0_169_145)">
<path d="M40.4089 33.4756C38.4744 35.3991 27.8371 44.6152 11.1421 33.9186C-0.932869 25.1038 -0.629984 5.99382 0.529055 0.219551C0.932901 1.06013 14.9423 29.852 40.4089 33.4756ZM0.529055 0.215765C0.678478 0.158969 16.2104 -1.82511 31.5646 7.4478C41.0994 13.2031 42.3635 21.6317 41.9273 27.2621C19.6067 24.9069 1.0379 0.878386 0.529055 0.215765Z" fill="#97C554"/>
<path d="M0.529051 0.215765C0.678475 0.158969 16.2104 -1.82511 31.5646 7.4478C41.0994 13.2031 42.3635 21.6317 41.9273 27.2621C19.6067 24.9069 1.0379 0.878386 0.529051 0.215765Z" fill="#709B30"/>
</g>
<defs>
<clipPath id="clip0_169_145">
<rect width="42" height="39" fill="white" transform="matrix(-1 0 0 1 42 0)"/>
</clipPath>
</defs>
</svg>
