<?xml version="1.0" encoding="UTF-8"?>
<svg version="1.1" xmlns="http://www.w3.org/2000/svg" width="512" height="512">
<path d="M0 0 C0.61746094 0.55042969 1.23492187 1.10085937 1.87109375 1.66796875 C6.23187874 7.19700099 7.15520414 13.14535136 7.73046875 19.95703125 C7.84952827 21.26194267 7.84952827 21.26194267 7.97099304 22.59321594 C8.783743 32.22392225 8.91549924 41.84021082 8.875 51.5 C8.87226578 52.86673355 8.87226578 52.86673355 8.86947632 54.26107788 C8.79527641 76.39174393 6.52749245 97.43756165 0.5625 118.8125 C0.28865479 119.81168457 0.28865479 119.81168457 0.00927734 120.83105469 C-6.27843884 143.18350835 -18.04299519 162.65169655 -33.4375 179.8125 C-34.13230469 180.59238281 -34.82710938 181.37226563 -35.54296875 182.17578125 C-71.44779858 220.16406348 -126.59461618 233.52997312 -176.4375 239.8125 C-180.85782097 255.34609545 -184.87623293 270.8631996 -187.8125 286.75 C-188.05049316 288.03197266 -188.28848633 289.31394531 -188.53369141 290.63476562 C-191.52793863 306.12385621 -191.52793863 306.12385621 -192.4375 321.8125 C-192.03660156 320.94109375 -191.63570312 320.0696875 -191.22265625 319.171875 C-187.13160846 310.60015582 -182.49696677 303.18656295 -176.4375 295.8125 C-175.73882812 294.94882812 -175.04015625 294.08515625 -174.3203125 293.1953125 C-152.3907596 267.41001404 -115.50463712 254.68251092 -82.61279297 251.96826172 C-77.72299066 251.61812773 -72.83343669 251.31380885 -67.9375 251.0625 C-66.39533813 250.97681763 -66.39533813 250.97681763 -64.82202148 250.8894043 C-52.45103752 250.37525651 -52.45103752 250.37525651 -47.4765625 254.3984375 C-47.00992187 254.98882812 -46.54328125 255.57921875 -46.0625 256.1875 C-45.58039063 256.77273438 -45.09828125 257.35796875 -44.6015625 257.9609375 C-36.12150016 271.44935881 -44.10725194 302.04322812 -47.18359375 316.578125 C-54.19123088 347.12981851 -69.51634314 376.45101513 -96.4375 393.8125 C-124.852233 411.47993806 -160.15070603 419.07655547 -193.4375 417.8125 C-196.59731381 433.27372733 -196.92457426 448.66376361 -197.18595886 464.38098145 C-197.29931428 470.96198531 -197.45354584 477.53387724 -197.8359375 484.10546875 C-197.93527588 485.83639771 -197.93527588 485.83639771 -198.03662109 487.60229492 C-198.53942223 491.62868479 -199.34452184 495.30314921 -201.75 498.625 C-204.07357103 500.26010554 -205.58625347 500.67988388 -208.4375 500.8125 C-213.78646566 498.81974809 -213.78646566 498.81974809 -215.62841797 495.9699707 C-216.55344116 493.50333523 -216.52413118 492.08038466 -216.1953125 489.48046875 C-216.09831055 488.61510498 -216.00130859 487.74974121 -215.90136719 486.8581543 C-215.78954102 485.91496338 -215.67771484 484.97177246 -215.5625 484 C-212.93471297 458.23308827 -213.56783655 432.6187874 -219.6328125 407.41015625 C-220.4375 403.8125 -220.4375 403.8125 -220.4375 400.8125 C-221.39188965 400.82821045 -222.3462793 400.8439209 -223.32958984 400.86010742 C-280.77605517 401.71860036 -342.28098641 392.7863939 -386.4375 352.8125 C-387.31792969 352.06355469 -388.19835937 351.31460937 -389.10546875 350.54296875 C-428.62797571 316.5352302 -443.16410848 259.11611043 -447.20605469 209.33447266 C-447.61582099 203.09893603 -447.80410266 196.87298166 -447.875 190.625 C-447.89731689 189.4611377 -447.91963379 188.29727539 -447.94262695 187.09814453 C-447.92144112 179.29145189 -446.77956351 173.84790536 -441.76171875 167.7890625 C-441.22160156 167.34304687 -440.68148437 166.89703125 -440.125 166.4375 C-439.32642578 165.74527344 -439.32642578 165.74527344 -438.51171875 165.0390625 C-433.10052233 161.8392213 -427.32781836 161.48470712 -421.1875 161.5625 C-420.37450439 161.56999268 -419.56150879 161.57748535 -418.72387695 161.58520508 C-376.35948853 162.29016236 -334.06169273 169.78145658 -296.4375 189.8125 C-295.83164062 190.12944824 -295.22578125 190.44639648 -294.6015625 190.77294922 C-284.99701265 195.82949307 -276.76943897 201.91526991 -268.4375 208.8125 C-267.715625 209.39128906 -266.99375 209.97007812 -266.25 210.56640625 C-262.57278219 213.57876995 -259.42921268 216.88983429 -256.3671875 220.5234375 C-255.00641914 222.13762831 -253.61228352 223.72397604 -252.1953125 225.2890625 C-230.1595802 250.28166623 -217.9408085 283.56882358 -211.4375 315.8125 C-209.97300533 309.68762745 -208.87805715 303.55197314 -207.8785553 297.33485413 C-205.54074655 282.82505697 -202.87700051 268.4979649 -199.25 254.25 C-198.9978775 253.2578096 -198.9978775 253.2578096 -198.74066162 252.24557495 C-197.21574667 246.28329738 -195.63729532 240.37663485 -193.69921875 234.53515625 C-191.4160807 227.0219765 -192.37997685 219.5249481 -193.14941406 211.82373047 C-197.8627174 164.60282199 -193.73922156 110.71616952 -165.4375 70.8125 C-164.72207031 69.80058594 -164.00664062 68.78867188 -163.26953125 67.74609375 C-131.61237367 24.25380616 -77.92266284 4.7120445 -26.6394043 -3.76245117 C-25.74777588 -3.90271729 -24.85614746 -4.0429834 -23.9375 -4.1875 C-22.71123901 -4.39306519 -22.71123901 -4.39306519 -21.46020508 -4.6027832 C-14.04591199 -5.65147771 -5.72973246 -5.38471631 0 0 Z " fill="#7BC457" transform="translate(475.4375,8.1875)"/>
<path d="M0 0 C0.81299561 0.00749268 1.62599121 0.01498535 2.46362305 0.02270508 C44.82801147 0.72766236 87.12580727 8.21895658 124.75 28.25 C125.65878906 28.72542236 125.65878906 28.72542236 126.5859375 29.21044922 C136.19048735 34.26699307 144.41806103 40.35276991 152.75 47.25 C153.471875 47.82878906 154.19375 48.40757812 154.9375 49.00390625 C158.61471781 52.01626995 161.75828732 55.32733429 164.8203125 58.9609375 C166.18108086 60.57512831 167.57521648 62.16147604 168.9921875 63.7265625 C190.00123851 87.5547194 201.40268884 118.50851312 208.875 148.9375 C209.08729248 149.74791748 209.29958496 150.55833496 209.51831055 151.39331055 C211.32737893 159.36009244 210.47889617 167.20093943 209.75 175.25 C209.62576699 176.70788093 209.50207225 178.16580783 209.37890625 179.6237793 C209.00253841 184.00117603 208.59690116 188.37558993 208.1875 192.75 C208.04731036 194.26690717 207.90733556 195.7838342 207.76757812 197.30078125 C207.4308461 200.95075182 207.09126247 204.60044988 206.75 208.25 C204.80754331 205.75043138 203.14615704 203.29419191 201.69140625 200.484375 C194.2602268 186.4450748 185.54015841 173.99048875 174.69921875 162.3515625 C172.95472294 160.47072333 171.31532432 158.54381969 169.6875 156.5625 C166.37866285 152.69920906 162.66321535 149.48852305 158.75 146.25 C157.99831543 145.61384766 157.99831543 145.61384766 157.23144531 144.96484375 C140.86900767 131.15152191 109.62764098 105.47026838 86.75 107.25 C85.265 107.745 85.265 107.745 83.75 108.25 C83.4715625 110.10625 83.4715625 110.10625 83.1875 112 C83.08308594 112.69609375 82.97867188 113.3921875 82.87109375 114.109375 C82.73797373 116.46259335 82.84830817 118.06621509 83.75 120.25 C85.74019821 120.98323092 87.74291742 121.68937423 89.77734375 122.2890625 C132.27220974 136.02590486 168.77557078 168.65898053 189.50976562 207.78564453 C200.75 230.12007874 200.75 230.12007874 200.75 239.25 C142.30770767 240.21203335 79.78252782 232.01692978 34.75 191.25 C33.86957031 190.50105469 32.98914063 189.75210938 32.08203125 188.98046875 C-7.44047571 154.9727302 -21.97660848 97.55361043 -26.01855469 47.77197266 C-26.42832099 41.53643603 -26.61660266 35.31048166 -26.6875 29.0625 C-26.70981689 27.8986377 -26.73213379 26.73477539 -26.75512695 25.53564453 C-26.73394112 17.72895189 -25.59206351 12.28540536 -20.57421875 6.2265625 C-20.03410156 5.78054687 -19.49398437 5.33453125 -18.9375 4.875 C-18.40511719 4.41351563 -17.87273438 3.95203125 -17.32421875 3.4765625 C-11.91302233 0.2767213 -6.14031836 -0.07779288 0 0 Z " fill="#7BC457" transform="translate(54.25,169.75)"/>
<path d="M0 0 C8.52429008 11.85447921 2.6300327 36.64762878 0.5625 50.203125 C-4.81269296 82.39129222 -18.62371336 114.20567729 -45.33544922 134.26171875 C-74.23874939 154.84348309 -112.53725853 163.19706218 -147.66015625 161.86328125 C-147.14199838 155.87656492 -145.32195557 151.19106862 -142.72265625 145.80078125 C-142.32224121 144.96659668 -141.92182617 144.13241211 -141.50927734 143.27294922 C-137.66489729 135.49922221 -133.06525943 128.62422706 -127.66015625 121.86328125 C-127.01457764 121.04851318 -127.01457764 121.04851318 -126.35595703 120.21728516 C-115.97232112 107.23100265 -104.26865495 95.70303619 -91.03466797 85.62548828 C-89.35570175 84.3450523 -87.69559275 83.04260922 -86.03515625 81.73828125 C-85.03226562 80.97257812 -84.029375 80.206875 -82.99609375 79.41796875 C-80.07396744 76.22219851 -79.79474388 74.13519222 -79.66015625 69.86328125 C-80.40552376 67.28610765 -80.40552376 67.28610765 -82.66015625 65.86328125 C-86.09688497 65.06546923 -87.38167199 64.88947405 -90.66015625 65.86328125 C-94.67938133 68.47877698 -98.13602146 71.62303509 -101.66015625 74.86328125 C-102.56765625 75.67539062 -103.47515625 76.4875 -104.41015625 77.32421875 C-106.07243115 78.81334002 -107.72710287 80.3110299 -109.37109375 81.8203125 C-111.73340182 83.9286523 -114.18295584 85.8922198 -116.66015625 87.86328125 C-129.67988244 100.15968932 -140.65062924 114.78114339 -150.26953125 129.8359375 C-150.7284375 130.50496094 -151.18734375 131.17398438 -151.66015625 131.86328125 C-151.99015625 131.86328125 -152.32015625 131.86328125 -152.66015625 131.86328125 C-153.00545279 118.23557788 -152.82033598 104.70203659 -151.65005493 91.12133789 C-151.47727114 89.10464516 -151.32177037 87.08649513 -151.16674805 85.06835938 C-148.96949665 61.70608016 -135.23020238 41.69041821 -117.84765625 26.55078125 C-95.86212378 9.15031449 -25.42919431 -23.06657968 0 0 Z " fill="#7BC457" transform="translate(429.66015625,264.13671875)"/>
<path d="M0 0 C3.89373193 0.95635521 5.33111278 1.57254692 7.5625 4.875 C8.125 7.8125 8.125 7.8125 7.5625 10.875 C4.17059837 14.75947558 0.38780394 17.38636584 -4 20 C-11.29635037 24.52953272 -17.37334432 29.81951979 -23.4375 35.875 C-24.58798828 37.00808594 -24.58798828 37.00808594 -25.76171875 38.1640625 C-48.36450022 61.78133147 -62.53379778 95.71644161 -69.79833984 127.13574219 C-70.54343989 130.3290281 -71.32889633 133.5114526 -72.11328125 136.6953125 C-82.47089562 179.25548817 -89.15878603 223.01526129 -88.4375 266.875 C-87.49390625 265.42480469 -87.49390625 265.42480469 -86.53125 263.9453125 C-79.55776488 253.30488964 -72.08231335 243.54687356 -63.484375 234.1484375 C-61.75337017 232.2258329 -60.11298789 230.27097894 -58.5 228.25 C-57.819375 227.46625 -57.13875 226.6825 -56.4375 225.875 C-55.7775 225.875 -55.1175 225.875 -54.4375 225.875 C-54.17453125 225.276875 -53.9115625 224.67875 -53.640625 224.0625 C-52.36765843 221.74801532 -51.2044742 220.55873498 -49.1875 218.875 C-48.48753906 218.28332031 -47.78757812 217.69164062 -47.06640625 217.08203125 C-45.76509766 215.98955078 -45.76509766 215.98955078 -44.4375 214.875 C-43.25774774 213.85965894 -42.07946992 212.84260319 -40.90234375 211.82421875 C-39.64333167 210.73686047 -38.38421656 209.64962147 -37.125 208.5625 C-36.51430664 208.03462891 -35.90361328 207.50675781 -35.27441406 206.96289062 C-34.69272461 206.46337891 -34.11103516 205.96386719 -33.51171875 205.44921875 C-32.99182373 205.00151123 -32.47192871 204.55380371 -31.9362793 204.0925293 C-28.39689386 201.21731913 -25.97929119 200.36431059 -21.3828125 200.5 C-19.4375 200.875 -19.4375 200.875 -16.875 202.9375 C-15.4375 205.875 -15.4375 205.875 -15.1875 209.25 C-16.97878638 214.4447305 -20.16444652 216.5927995 -24.4375 219.875 C-32.25277385 226.13933579 -39.73438195 232.64539358 -47.00830078 239.52490234 C-48.21610205 240.66585571 -49.43320563 241.79694966 -50.65234375 242.92578125 C-73.24934613 264.50614958 -86.94296087 292.91165303 -87.6776123 324.19032288 C-87.69118774 324.93318039 -87.70476318 325.6760379 -87.71875 326.44140625 C-87.74636414 327.63623878 -87.74636414 327.63623878 -87.77453613 328.85520935 C-87.83269994 331.38257189 -87.88566627 333.91000029 -87.9375 336.4375 C-88.70053739 373.09538496 -88.70053739 373.09538496 -92.75 378.6875 C-95.07357103 380.32260554 -96.58625347 380.74238388 -99.4375 380.875 C-104.78646566 378.88224809 -104.78646566 378.88224809 -106.62841797 376.0324707 C-107.55344116 373.56583523 -107.52413118 372.14288466 -107.1953125 369.54296875 C-107.04980957 368.2449231 -107.04980957 368.2449231 -106.90136719 366.9206543 C-106.78954102 365.97746338 -106.67771484 365.03427246 -106.5625 364.0625 C-104.48434017 343.68498831 -103.84013449 322.11412548 -107.4375 301.875 C-107.62054688 300.83811035 -107.80359375 299.8012207 -107.9921875 298.73291016 C-114.51969088 263.00792443 -129.26934582 234.00377075 -154.4375 207.875 C-155.47197266 206.74578125 -155.47197266 206.74578125 -156.52734375 205.59375 C-174.72748892 186.31067872 -199.66199578 172.92701226 -224.31518555 163.87817383 C-226.58899052 162.80339359 -227.86784245 161.83085028 -229.4375 159.875 C-230.4375 156.5 -230.4375 156.5 -230.4375 152.875 C-228.375 149.9375 -228.375 149.9375 -225.4375 147.875 C-219.5877523 147.03171315 -214.91405479 149.43244814 -209.6875 151.75 C-208.76227539 152.15565186 -207.83705078 152.56130371 -206.88378906 152.97924805 C-179.5489013 165.19385341 -152.38802688 183.39897417 -133.4375 206.875 C-133.03708496 207.36307129 -132.63666992 207.85114258 -132.22412109 208.35400391 C-122.0848368 220.74399461 -113.9459946 233.74815211 -106.4375 247.875 C-105.9969697 243.49053726 -105.55691499 239.10602782 -105.11767578 234.72143555 C-104.74556092 231.00786164 -104.37125608 227.29451663 -103.99560547 223.58129883 C-102.8835381 212.68499284 -102.8835381 212.68499284 -101.9375 201.7734375 C-100.17221898 179.13710313 -95.88417369 156.63162792 -90.375 134.625 C-90.05901855 133.36067139 -89.74303711 132.09634277 -89.41748047 130.79370117 C-86.0293874 117.69023821 -81.67611653 104.99025479 -76.625 92.4375 C-75.97543335 90.82210327 -75.97543335 90.82210327 -75.31274414 89.17407227 C-72.04565713 81.15616878 -68.53052596 73.35124764 -64.43066406 65.72558594 C-63.75435203 64.46539783 -63.08737292 63.2001665 -62.42871094 61.93066406 C-55.0735117 47.75709055 -45.92405993 34.99568766 -34.4375 23.875 C-33.2928125 22.699375 -33.2928125 22.699375 -32.125 21.5 C-30.7946875 20.200625 -30.7946875 20.200625 -29.4375 18.875 C-28.75300781 18.20597656 -28.06851563 17.53695312 -27.36328125 16.84765625 C-20.87965633 10.73989365 -14.08655951 6.34857338 -6.4375 1.875 C-3.4375 -0.125 -3.4375 -0.125 0 0 Z " fill="#3F403F" transform="translate(366.4375,128.125)"/>
</svg>
